<svg id="Capa_1" data-name="Capa 1" xmlns="http://www.w3.org/2000/svg" viewBox="0 0 2915.78 2551.18"><defs><style>.cls-1{fill:#fff;}</style></defs><path class="cls-1" d="M1033.45,2266.9c-140.71,0-255.2-114.49-255.2-255.22s114.49-255.25,255.2-255.25,255.28,114.51,255.28,255.25S1174.22,2266.9,1033.45,2266.9Z"/><path class="cls-1" d="M2179.32,2266.9c-140.75,0-255.26-114.49-255.26-255.22s114.51-255.25,255.26-255.25,255.21,114.51,255.21,255.25S2320,2266.9,2179.32,2266.9Z"/><path class="cls-1" d="M2179.32,2051h-1089a96.15,96.15,0,0,1-91.57-125.48L1145,1566.16a39.36,39.36,0,0,1,72.89,29.71l-145.22,356.54c-.69,2.45.28,8.29,3.56,12.81a17.46,17.46,0,0,0,14.1,7.11h1089a39.35,39.35,0,0,1,0,78.69Z"/><path class="cls-1" d="M2515.24,620.3A96.5,96.5,0,0,0,2437.68,581l-1640.16.55L720.45,405A39.37,39.37,0,0,0,684.4,381.4H319.91a39.35,39.35,0,1,0,0,78.69H658.64l481,1102.13a95.91,95.91,0,0,0,88.29,58.13h942.42a95.93,95.93,0,0,0,91.73-67.23l267.31-847A96.47,96.47,0,0,0,2515.24,620.3ZM2090,1392.59H1285.36a39.35,39.35,0,0,1,0-78.69H2090a39.35,39.35,0,1,1,0,78.69Zm68.68-248.5h-942a39.34,39.34,0,0,1,0-78.68h942a39.34,39.34,0,1,1,0,78.68ZM2215,895.58H1160.32a39.35,39.35,0,0,1,0-78.69H2215a39.35,39.35,0,0,1,0,78.69Z"/><path class="cls-1" d="M394,423.41A62.06,62.06,0,1,1,332,361.35,62.05,62.05,0,0,1,394,423.41Z"/></svg>